<svg version="1" xmlns="http://www.w3.org/2000/svg" width="1333.333" height="1333.333" viewBox="0 0 1000.000000 1000.000000"><path d="M484.8 133.6c-.2.1-5 .5-10.8.9-13.2.8-23.2 1.8-30 3-1.4.3-5.4 1-9 1.6-16.7 2.9-52.8 12.7-63.5 17.3-1.6.7-7.3 3-12.5 5.1-16.8 6.7-41.4 19.8-62 33.1-3.5 2.2-16.1 11.4-25.5 18.5-6.9 5.3-20.8 18-32.5 29.8-38.5 38.8-66.6 83.8-85.3 136.6-5.5 15.4-12.1 40.4-14.2 53.5-.8 4.8-1.2 7-2 11-.2 1.4-.7 5-1.1 8-.3 3-.7 6.6-.9 8-2.4 18.2-2.5 67.2 0 79.7.2 1.1.6 4.5.9 7.5 4.4 41.1 21.6 93 44.2 133.1 8.5 15 31.7 48.7 36.3 52.7.3.3 3 3.4 6 7 7.5 9.1 30.9 32.2 41.1 40.6 44.4 36.8 94.2 62.1 148.5 75.4 7.2 1.8 13.9 3.4 15 3.6 13.7 2.3 20.7 3.5 24.3 3.9 2.3.3 6 .7 8.2 1 20.1 2.5 62.1 2.5 80 0 1.4-.2 5-.6 8-1 3-.3 6.2-.8 7-1 .8-.2 3.3-.7 5.5-1 2.3-.3 5.2-.8 6.5-1 1.4-.3 4.1-.8 6-1.1 7.1-1.2 33.9-8.4 45-12.3 53.8-18.4 100.2-47.3 140-87.1 13.5-13.5 16.5-16.6 25.1-27 8.5-10.3 30.9-41.8 30.9-43.5 0-.2 2.1-3.9 4.7-8.2 4.1-6.9 13.6-25.9 19.1-38.3 3.6-8.2 11.4-30.4 14.9-42.5 3.6-12.9 9.6-41.8 10.9-52.5.4-3.6.8-7.6 1-9 2.8-21.5 2.3-62.1-1.1-87.5-7.6-57-28.9-112-62.3-160.5-20-29.1-51-61.5-79.8-83.2-7-5.3-26.3-18.8-26.9-18.8-.3 0-2.8-1.5-5.7-3.4-16.1-10.2-46.4-24.4-69.3-32.2-11.7-4.1-38.9-11.6-46.1-12.8-1.6-.3-6.9-1.2-11.9-2-4.9-.9-11-1.8-13.5-2.1-2.5-.3-5.6-.7-7-1-6.7-1.2-55.2-2.9-56.2-1.9zm33.9 248.2c.1 55.8.3 101.6.6 101.8.2.2 46 .5 101.8.7l101.4.2V507l-.1 22.5-124.7.3-124.7.2V280.5h45.5l.2 101.3zM382.1 296c0 3 0 76.7.1 163.7v158.2h157.2c86.4 0 160 0 163.6.1h6.5v45.5H523.3c-102.5 0-186.4-.2-186.5-.5-.2-.9-.5-371.5-.2-372 .1-.3 10.4-.5 22.8-.5H382l.1 5.5z"/></svg>